<?xml version="1.0" encoding="UTF-8"?> <svg xmlns="http://www.w3.org/2000/svg" width="500" height="133" viewBox="0 0 500 133" fill="none"><g clip-path="url(#clip0_2079_120129)"><path fill-rule="evenodd" clip-rule="evenodd" d="M362.693 0.199951H353.025L319.862 81.0096H328.162L357.859 8.62392L387.556 81.0096H395.856L362.693 0.199951Z" fill="#77787B"></path><path fill-rule="evenodd" clip-rule="evenodd" d="M238.483 81.0096H299.299V73.7586H245.841V44.2214H299.299V36.9704H245.841V7.45096H299.299V0.199951H238.483V81.0096Z" fill="#77787B"></path><path d="M92.628 0.199951H85.377V81.0097H92.628V0.199951Z" fill="#77787B"></path><path d="M0 0.199951V81.0096H60.7628V73.7586H7.21547V0.199951H0Z" fill="#77787B"></path><path fill-rule="evenodd" clip-rule="evenodd" d="M134.215 81.0096H141.466V9.63693L191.086 81.0096H200.647V0.199951H193.378V71.5727L143.758 0.199951H134.215V81.0096Z" fill="#77787B"></path><path fill-rule="evenodd" clip-rule="evenodd" d="M423.03 7.45096H463.692C482.619 7.45096 482.619 44.3103 463.692 44.3103H450.274V51.5613L474.391 80.9919H484.237L460.209 51.5613H463.123C492.643 51.5791 492.643 0.199951 463.106 0.199951H415.761V81.0096H423.012V7.45096H423.03Z" fill="#77787B"></path><path d="M486.066 73.883H491.807V74.9494H489.55V80.9741H488.306V74.9494H486.066V73.883V73.883Z" fill="#77787B"></path><path d="M492.624 73.883H494.384L496.339 79.4457H496.357L498.258 73.883H499.982V80.9919H498.791V75.5181H498.774L496.801 80.9919H495.77L493.797 75.5181H493.78V80.9919H492.589V73.883H492.624Z" fill="#77787B"></path><path d="M286.735 118.42C286.86 116.163 287.624 114.528 289.063 113.515C290.485 112.502 292.316 111.986 294.519 111.986C295.372 111.986 296.208 112.075 297.061 112.235C297.896 112.395 298.66 112.697 299.336 113.142C300.011 113.586 300.544 114.208 300.971 115.025C301.397 115.825 301.61 116.874 301.61 118.171V128.372C301.61 129.314 302.072 129.794 302.979 129.794C303.228 129.794 303.476 129.741 303.725 129.652V131.625C303.459 131.678 303.21 131.713 302.997 131.731C302.783 131.749 302.517 131.767 302.197 131.767C301.61 131.767 301.13 131.678 300.757 131.518C300.402 131.358 300.117 131.127 299.922 130.825C299.726 130.523 299.584 130.167 299.531 129.758C299.478 129.35 299.442 128.888 299.442 128.408H299.371C298.945 129.03 298.518 129.581 298.091 130.061C297.665 130.54 297.167 130.949 296.634 131.287C296.101 131.625 295.479 131.873 294.786 132.051C294.093 132.229 293.275 132.318 292.369 132.318C291.462 132.318 290.627 132.211 289.863 131.98C289.081 131.749 288.406 131.411 287.819 130.949C287.233 130.487 286.771 129.901 286.451 129.208C286.113 128.497 285.953 127.661 285.953 126.702C285.953 125.369 286.255 124.32 286.842 123.556C287.428 122.81 288.228 122.223 289.205 121.832C290.183 121.441 291.285 121.157 292.511 120.997C293.737 120.837 294.981 120.677 296.243 120.535C296.723 120.481 297.15 120.41 297.523 120.321C297.914 120.233 298.216 120.108 298.465 119.931C298.714 119.753 298.909 119.504 299.033 119.184C299.176 118.864 299.247 118.438 299.247 117.922C299.247 117.123 299.122 116.483 298.856 115.967C298.589 115.452 298.234 115.061 297.772 114.759C297.31 114.457 296.776 114.261 296.172 114.137C295.568 114.03 294.91 113.977 294.217 113.977C292.76 113.977 291.534 114.332 290.592 115.043C289.632 115.754 289.134 116.891 289.081 118.455H286.735V118.42ZM299.247 121.246H299.176C299.033 121.512 298.749 121.725 298.323 121.85C297.896 121.974 297.523 122.063 297.203 122.116C296.208 122.294 295.177 122.454 294.128 122.579C293.08 122.721 292.102 122.916 291.249 123.201C290.378 123.467 289.667 123.858 289.117 124.374C288.566 124.889 288.281 125.6 288.281 126.559C288.281 127.146 288.406 127.679 288.637 128.141C288.868 128.603 289.188 128.994 289.579 129.332C289.97 129.67 290.432 129.918 290.947 130.096C291.462 130.274 291.996 130.363 292.547 130.363C293.435 130.363 294.288 130.221 295.124 129.954C295.941 129.687 296.652 129.279 297.256 128.763C297.86 128.248 298.358 127.608 298.714 126.862C299.069 126.115 299.247 125.28 299.247 124.338V121.281V121.246Z" fill="#77787B"></path><path d="M313.056 105.18H318.867L329.957 123.005H330.028V105.18H335.502V131.749H329.655L318.601 113.959H318.529V131.749H313.056V105.18V105.18Z" fill="#00529B"></path><path d="M338.754 112.502H344.032V131.731H338.754V112.502V112.502ZM344.032 109.534H338.754V105.18H344.032V109.534Z" fill="#00529B"></path><path d="M359.76 119.273C359.423 117.123 358.054 115.967 355.851 115.967C352.474 115.967 351.354 119.397 351.354 122.223C351.354 125.049 352.438 128.283 355.744 128.283C358.197 128.283 359.618 126.719 359.956 124.374H365.057C364.381 129.474 360.845 132.264 355.797 132.264C349.986 132.264 346.094 128.177 346.094 122.401C346.094 116.625 349.666 111.986 355.922 111.986C360.454 111.986 364.63 114.368 364.968 119.273H359.796H359.76Z" fill="#00529B"></path><path d="M371.97 120.055C372.041 118.562 373.018 115.967 376.359 115.967C378.919 115.967 380.074 117.389 380.571 120.055H371.97ZM385.85 123.396C386.223 117.478 383.059 111.969 376.519 111.969C370.672 111.969 366.691 116.358 366.691 122.134C366.691 127.91 370.441 132.247 376.519 132.247C380.874 132.247 384.037 130.309 385.53 125.778H380.874C380.536 126.968 378.83 128.266 376.715 128.266C373.782 128.266 372.13 126.737 371.987 123.396H385.867H385.85Z" fill="#00529B"></path><path d="M395.092 105.144H397.42V116.092H397.491C398.486 113.355 401.259 111.915 404.102 111.915C409.896 111.915 412.669 116.607 412.669 122.01C412.669 127.413 409.896 132.104 404.102 132.104C401.028 132.104 398.38 130.523 397.296 127.928H397.225V131.553H395.074V105.162L395.092 105.144ZM404.102 113.87C399.144 113.87 397.42 118.047 397.42 122.01C397.42 125.973 399.162 130.149 404.102 130.149C408.545 130.149 410.34 125.973 410.34 122.01C410.34 118.047 408.528 113.87 404.102 113.87Z" fill="#77787B"></path><path d="M416.312 112.466H418.462V116.945H418.533C419.724 113.87 422.301 112.057 425.748 112.217V114.546C421.537 114.332 418.657 117.425 418.657 121.388V131.553H416.329V112.484L416.312 112.466Z" fill="#77787B"></path><path d="M427.721 118.295C427.934 113.817 431.08 111.898 435.452 111.898C438.81 111.898 442.471 112.928 442.471 118.029V128.159C442.471 129.048 442.916 129.563 443.84 129.563C444.107 129.563 444.391 129.492 444.586 129.421V131.376C444.071 131.482 443.698 131.518 443.076 131.518C440.712 131.518 440.339 130.185 440.339 128.195H440.268C438.633 130.665 436.98 132.069 433.319 132.069C429.658 132.069 426.921 130.327 426.921 126.488C426.921 121.121 432.128 120.944 437.158 120.357C439.077 120.144 440.143 119.877 440.143 117.762C440.143 114.617 437.886 113.852 435.149 113.852C432.27 113.852 430.12 115.185 430.049 118.295H427.721ZM440.143 121.103H440.072C439.77 121.654 438.739 121.85 438.117 121.957C434.154 122.667 429.249 122.614 429.249 126.346C429.249 128.674 431.311 130.114 433.497 130.114C437.051 130.114 440.179 127.857 440.143 124.125V121.086V121.103Z" fill="#77787B"></path><path d="M447.093 112.466H449.421V115.754H449.492C450.345 113.461 452.886 111.915 455.588 111.915C460.955 111.915 462.572 114.723 462.572 119.273V131.536H460.244V119.628C460.244 116.341 459.178 113.87 455.41 113.87C451.642 113.87 449.492 116.678 449.421 120.41V131.536H447.093V112.466V112.466Z" fill="#77787B"></path><path d="M483.757 131.536H481.606V127.91H481.535C480.54 130.381 477.501 132.087 474.728 132.087C468.935 132.087 466.162 127.395 466.162 121.992C466.162 116.589 468.935 111.898 474.728 111.898C477.572 111.898 480.344 113.337 481.339 116.074H481.411V105.126H483.739V131.518L483.757 131.536ZM474.746 130.132C479.704 130.132 481.428 125.955 481.428 121.992C481.428 118.029 479.687 113.852 474.746 113.852C470.303 113.852 468.508 118.029 468.508 121.992C468.508 125.955 470.321 130.132 474.746 130.132Z" fill="#77787B"></path></g><defs><clipPath id="clip0_2079_120129"><rect width="500" height="132.1" fill="white" transform="translate(0 0.199951)"></rect></clipPath></defs></svg> 